<svg width="136" height="136" viewBox="0 0 136 136" fill="none" xmlns="http://www.w3.org/2000/svg">
<path fill-rule="evenodd" clip-rule="evenodd" d="M32.6303 4.13226C33.5739 1.32789 36.403 -0.386617 39.3257 0.0747058L118.398 12.5558C120.996 12.9659 123.034 15.0038 123.444 17.6021L135.925 96.6743C136.387 99.597 134.672 102.426 131.868 103.37L66.6078 125.328L71.2607 115.025L116.939 93.1713C118.795 92.2831 119.785 90.2238 119.318 88.2194L106.434 32.8447C106.055 31.2162 104.784 29.9447 103.155 29.5658L47.8357 16.6944C45.8103 16.2231 43.7322 17.2385 42.8593 19.126L21.5025 65.3072L10.7306 69.2182L32.6303 4.13226ZM50.3139 47.8131L50.8191 48.9868C52.5563 53.0224 51.9478 57.685 49.2329 61.1396L14.0843 105.866C13.2948 106.87 12.9825 108.169 13.2289 109.423L14.8538 117.688C15.1975 119.436 16.5642 120.803 18.3123 121.146L26.577 122.771C27.8307 123.018 29.1296 122.705 30.1343 121.916L74.8604 86.7671C78.315 84.0523 82.9776 83.4437 87.0133 85.1809L88.1869 85.6861L36.5839 134.347C35.3611 135.5 33.7146 136.094 32.0372 135.988L7.25662 134.413C4.20937 134.219 1.781 131.791 1.58731 128.743L0.0122292 103.963C-0.0943846 102.285 0.49971 100.639 1.65284 99.4161L50.3139 47.8131Z" fill="#9D34DA"/>
</svg>
